<svg width="137" height="72" viewBox="0 0 137 72" fill="none" xmlns="http://www.w3.org/2000/svg">
<path d="M1.65 63V42.36H8.4V50.13H14.79V42.36H21.57V63H14.79V54.87H8.4V63H1.65ZM32.4759 63.24C30.7759 63.24 29.2759 62.91 27.9759 62.25C26.6759 61.59 25.6559 60.68 24.9159 59.52C24.1959 58.34 23.8359 56.99 23.8359 55.47C23.8359 53.91 24.2059 52.56 24.9459 51.42C25.7059 50.26 26.7359 49.36 28.0359 48.72C29.3359 48.08 30.8259 47.76 32.5059 47.76C34.2259 47.76 35.7359 48.09 37.0359 48.75C38.3359 49.39 39.3459 50.29 40.0659 51.45C40.7859 52.59 41.1459 53.93 41.1459 55.47C41.1459 57.01 40.7759 58.37 40.0359 59.55C39.3159 60.71 38.3059 61.62 37.0059 62.28C35.7059 62.92 34.1959 63.24 32.4759 63.24ZM32.5359 58.74C33.3559 58.74 34.0259 58.44 34.5459 57.84C35.0859 57.22 35.3559 56.43 35.3559 55.47C35.3559 54.51 35.0959 53.73 34.5759 53.13C34.0559 52.51 33.3959 52.2 32.5959 52.2C31.7359 52.2 31.0359 52.51 30.4959 53.13C29.9759 53.73 29.7159 54.51 29.7159 55.47C29.7159 56.43 29.9759 57.22 30.4959 57.84C31.0359 58.44 31.7159 58.74 32.5359 58.74ZM49.3045 63.24C47.8845 63.24 46.7245 63 45.8245 62.52C44.9445 62.04 44.3045 61.39 43.9045 60.57C43.5045 59.75 43.3045 58.83 43.3045 57.81V42.63L49.6345 41.7V56.94C49.6345 57.4 49.7845 57.76 50.0845 58.02C50.3845 58.26 50.7745 58.38 51.2545 58.38C51.7345 58.38 52.2145 58.26 52.6945 58.02L53.1445 62.19C52.6645 62.53 52.0545 62.79 51.3145 62.97C50.5745 63.15 49.9045 63.24 49.3045 63.24ZM60.1945 63.24C58.8545 63.24 57.7645 63 56.9245 62.52C56.1045 62.04 55.5045 61.39 55.1245 60.57C54.7445 59.75 54.5545 58.83 54.5545 57.81V47.97H60.8845V56.94C60.8845 57.4 61.0145 57.76 61.2745 58.02C61.5545 58.26 61.8845 58.38 62.2645 58.38C62.6645 58.38 63.0745 58.26 63.4945 58.02L63.8245 62.19C63.3845 62.53 62.8145 62.79 62.1145 62.97C61.4145 63.15 60.7745 63.24 60.1945 63.24ZM57.7345 46.32C56.8145 46.32 56.0245 46.03 55.3645 45.45C54.7045 44.85 54.3745 44.12 54.3745 43.26C54.3745 42.66 54.5345 42.14 54.8545 41.7C55.1745 41.24 55.5945 40.88 56.1145 40.62C56.6345 40.36 57.1745 40.23 57.7345 40.23C58.3545 40.23 58.9145 40.37 59.4145 40.65C59.9345 40.93 60.3445 41.3 60.6445 41.76C60.9645 42.22 61.1245 42.72 61.1245 43.26C61.1245 43.86 60.9545 44.39 60.6145 44.85C60.2945 45.31 59.8745 45.67 59.3545 45.93C58.8545 46.19 58.3145 46.32 57.7345 46.32ZM71.8507 63.24C70.4707 63.24 69.2207 62.91 68.1007 62.25C66.9807 61.57 66.0907 60.64 65.4307 59.46C64.7907 58.28 64.4707 56.93 64.4707 55.41C64.4707 53.89 64.7907 52.56 65.4307 51.42C66.0907 50.28 66.9807 49.39 68.1007 48.75C69.2207 48.09 70.4707 47.76 71.8507 47.76C72.8307 47.76 73.7707 48.03 74.6707 48.57C75.5907 49.09 76.2707 49.94 76.7107 51.12V43.23L83.0407 42.3V63H76.7707V60.21C76.2907 61.19 75.6507 61.94 74.8507 62.46C74.0507 62.98 73.0507 63.24 71.8507 63.24ZM73.8007 58.5C74.6207 58.5 75.3207 58.21 75.9007 57.63C76.4807 57.03 76.7707 56.3 76.7707 55.44C76.7707 54.58 76.4807 53.88 75.9007 53.34C75.3207 52.78 74.6207 52.5 73.8007 52.5C72.9407 52.5 72.2207 52.79 71.6407 53.37C71.0607 53.95 70.7707 54.66 70.7707 55.5C70.7707 56.34 71.0607 57.05 71.6407 57.63C72.2207 58.21 72.9407 58.5 73.8007 58.5ZM92.6808 63.24C91.3008 63.24 90.0508 62.91 88.9308 62.25C87.8108 61.57 86.9208 60.64 86.2608 59.46C85.6208 58.28 85.3008 56.93 85.3008 55.41C85.3008 53.89 85.6208 52.56 86.2608 51.42C86.9208 50.28 87.8108 49.39 88.9308 48.75C90.0508 48.09 91.3008 47.76 92.6808 47.76C93.6608 47.76 94.6108 48.03 95.5308 48.57C96.4508 49.11 97.1608 50 97.6608 51.24V47.97H103.901V63H97.6008V60.21C97.1208 61.19 96.4808 61.94 95.6808 62.46C94.8808 62.98 93.8808 63.24 92.6808 63.24ZM94.6308 58.5C95.4508 58.5 96.1508 58.21 96.7308 57.63C97.3108 57.03 97.6008 56.3 97.6008 55.44C97.6008 54.58 97.3108 53.88 96.7308 53.34C96.1508 52.78 95.4508 52.5 94.6308 52.5C93.7708 52.5 93.0508 52.79 92.4708 53.37C91.8908 53.95 91.6008 54.66 91.6008 55.5C91.6008 56.34 91.8908 57.05 92.4708 57.63C93.0508 58.21 93.7708 58.5 94.6308 58.5ZM106.31 63V59.79L111.74 52.11H106.52V47.97H119V51.21L113.84 58.86H119.12V63H106.31ZM130.771 59.04C131.351 59.04 131.961 58.98 132.601 58.86C133.261 58.74 133.931 58.52 134.611 58.2L135.331 62.07C134.591 62.45 133.781 62.74 132.901 62.94C132.041 63.14 131.051 63.24 129.931 63.24C127.911 63.24 126.211 62.91 124.831 62.25C123.471 61.59 122.441 60.68 121.741 59.52C121.041 58.36 120.691 57.02 120.691 55.5C120.691 53.94 121.061 52.58 121.801 51.42C122.561 50.26 123.571 49.36 124.831 48.72C126.091 48.08 127.481 47.76 129.001 47.76C131.261 47.76 132.991 48.47 134.191 49.89C135.391 51.29 135.991 53.29 135.991 55.89L127.051 57.03C127.711 58.37 128.951 59.04 130.771 59.04ZM126.571 54.27L131.281 53.28C131.201 52.64 130.981 52.17 130.621 51.87C130.261 51.55 129.811 51.39 129.271 51.39C128.471 51.39 127.831 51.67 127.351 52.23C126.891 52.77 126.631 53.45 126.571 54.27Z" fill="white"/>
<path d="M84.5937 18.7263L84.33 18.9901H84.0662L83.8025 19.2538H83.5387L83.0112 19.7813V20.0451L82.7475 20.3088V20.8363L82.4837 21.1001V22.6826L82.22 22.9463H79.5825L79.055 23.4738H78.7912V23.7376L78.2637 24.2651V24.7926L78 25.0563V33.7601L78.2637 34.0238V34.2876L78.7912 34.8151V35.0788H79.055L79.3187 35.3426H79.5825L79.8462 35.6063H95.4075L95.6712 35.3426H95.935L96.1987 35.0788H96.4625L96.99 34.5513V34.2876L97.2537 34.0238V25.0563L96.99 24.7926V24.5288L95.6712 23.2101H95.4075L95.1437 22.9463H92.5062L92.2425 22.6826V20.3088L91.9787 20.0451V19.7813L90.9237 18.7263H84.5937Z" fill="white"/>
<path d="M88.2863 0L88.0225 0.26375H86.9675L86.7038 0.5275H86.1763L85.9125 0.79125H85.6488L85.1213 1.31875H84.8575L84.0663 2.11V2.37375H84.33L84.5938 2.6375H84.8575L85.1213 2.90125H85.6488L85.9125 3.165H86.7038L86.9675 3.42875H87.495L87.7588 3.6925H88.2863L88.55 3.95625H89.3413L89.605 4.22H89.8688L90.1325 4.48375H90.3963L90.66 4.7475H90.9238L91.1875 5.01125H91.4513L91.715 5.275H91.9788L92.5063 5.8025L92.2425 6.06625H89.605L89.3413 6.33H88.0225L87.7588 6.59375H87.2313L86.9675 6.8575H86.44L86.1763 7.12125H85.9125L85.385 7.64875H85.1213L84.8575 7.9125H84.5938L83.0113 9.495V9.75875L82.4838 10.2863V10.8138L82.22 11.0775V11.605L81.9563 11.8688V12.9238L82.22 13.1875H82.7475L83.0113 12.9238H83.5388L83.8025 12.66H84.0663L84.33 12.3963H84.5938L84.8575 12.1325H85.1213L85.385 11.8688H85.6488L85.9125 11.605H86.7038L86.9675 11.3413H87.2313L87.495 11.0775H88.2863L88.55 10.8138H89.0775L89.3413 10.55H90.9238L91.1875 10.8138L90.9238 11.0775V11.3413L90.3963 11.8688V12.1325L90.1325 12.3963V14.77L90.3963 15.0338V15.5613L90.66 15.825V16.0888L90.9238 16.3525V16.6163H91.4513L92.77 15.2975V15.0338L96.1988 11.605H96.4625L96.7263 11.3413H96.99L97.7813 12.1325V12.3963L98.3088 12.9238V13.1875L98.5725 13.4513V13.715L98.8363 13.9788V14.2425L99.1 14.5063V14.77L99.3638 15.0338V15.5613L99.6275 15.825V16.3525L99.8913 16.6163V17.1438L100.155 17.4075V18.1988L100.419 18.4625V19.2538L100.683 19.5175V20.5725L100.946 20.8363V22.155L101.21 22.4188V26.6388L101.474 26.9025V32.705L101.738 32.9688V35.6063L102.265 36.1338H103.584L104.111 35.6063V35.0788L104.375 34.815V31.65L104.111 31.3863V25.0563L103.848 24.7925V21.3638L103.584 21.1V19.5175L103.32 19.2538V17.935L103.056 17.6713V16.3525L102.793 16.0888V15.2975L102.529 15.0338V14.2425L102.265 13.9788V13.4513L102.001 13.1875V12.66L101.738 12.3963V12.1325L101.474 11.8688V11.605L101.21 11.3413V11.0775L100.946 10.8138L101.21 10.55H101.738L102.001 10.8138H102.793L103.056 11.0775H103.32L103.584 11.3413H104.111L104.375 11.605H104.639L104.903 11.8688H105.166L105.43 12.1325H105.694L105.958 12.3963H106.221L106.749 12.9238H107.013L107.54 13.4513H107.804L108.331 13.9788H108.595L108.859 14.2425H109.123L109.386 14.5063H109.914L110.178 14.2425V12.3963L109.914 12.1325V11.605L109.65 11.3413V11.0775L109.386 10.8138V10.55L109.123 10.2863V10.0225L107.54 8.44H107.276L106.749 7.9125H106.485L106.221 7.64875H105.958L105.694 7.385H105.43L105.166 7.12125H104.639L104.375 6.8575H103.584L103.32 6.59375H102.529L102.265 6.33H101.474L101.21 6.06625L101.474 5.8025H101.738L102.265 5.275H102.529L102.793 5.01125H103.056L103.32 4.7475H103.584L103.848 4.48375H104.111L104.375 4.22H104.903L105.166 3.95625H105.694L105.958 3.6925H106.485L106.749 3.42875H107.54L107.804 3.165H109.123L109.386 2.90125H109.65V2.37375L108.595 1.31875H108.331L107.804 0.79125H107.54L107.276 0.5275H106.749L106.485 0.26375H105.43L105.166 0H104.903L104.639 0.26375H103.056L102.793 0.5275H102.265L102.001 0.79125H101.738L101.474 1.055H101.21L100.946 1.31875H100.683L100.419 1.5825H100.155L99.6275 2.11H99.3638L97.7813 3.6925V3.95625L96.99 4.7475L96.4625 4.22V3.95625L94.0888 1.5825H93.825L93.2975 1.055H93.0338L92.77 0.79125H92.5063L92.2425 0.5275H91.715L91.4513 0.26375H90.3963L90.1325 0H88.2863Z" fill="white"/>
</svg>
